# xmcd
#
# Track frame offsets:
#	150
#	15375
#	27681
#	38248
#	52395
#	65402
#	80392
#	98324
#	111212
#	121546
#	137025
#	151784
#	165612
#	178088
#	191544
#	201773
#	214761
#	226343
#	241009
#	253758
#	267442
#	282160
#	296624
#	309705
#	319869
#	333904
#
# Disc length: 4588 seconds
#
# Revision: 0
# Processed by: cddbd v1.5.2PL0 Copyright (c) Steve Scherf et al.
# Submitted via: EZCDAudioConverter 2.0.5.1
#
DISCID=6e11ea1a
DTITLE=Artistes varies - 100 titres de jazz incontournables - CD 2
DYEAR=2004
DGENRE=Jazz Retro
TTITLE0=Louis Armstrong - When it's sleepy time down south
TTITLE1=Louis Armstrong - When the saints
TTITLE2=Art Tatum - Tiger rag
TTITLE3=Benny Carter - Blue Lou
TTITLE4=Paul Whiteman - Whispering
TTITLE5=Lionel Hampton - Hey ba ba re bop
TTITLE6=Fats Waller - Ain't misbehavin'
TTITLE7=Louis Armstrong - Heebies jeebies
TTITLE8=Lionel Hampton - Hot mallets
TTITLE9=Charlie Barnet - Cherokee
TTITLE10=Lionel Hampton - Flying home
TTITLE11=Fletcher Henderson - Christopher Colombus
TTITLE12=Jimmie Lunceford - For dancers only
TTITLE13=Earl Hines - Rosetta
TTITLE14=Artie Shaw - Traffic jam
TTITLE15=Louis Armstrong - Swing that music
TTITLE16=Kid Ory - Muskrat ramble
TTITLE17=Jerry Roll Morton - Wolverine blues
TTITLE18=Jerry Roll Morton - High society
TTITLE19=Art Tatum - I've got my love to keep me warm
TTITLE20=Dexter Gordon - I can't escape from you
TTITLE21=Gerry Mulligan - Disc jockey jump
TTITLE22=INCONNU - Concert for Cozy
TTITLE23=King Oliver - Dippermouth Blues
TTITLE24=Lester Young - Just you, just me
TTITLE25=Louis Armstrong - Heebies jeebies
EXTD=
EXTT0=
EXTT1=
EXTT2=
EXTT3=
EXTT4=
EXTT5=
EXTT6=
EXTT7=
EXTT8=
EXTT9=
EXTT10=
EXTT11=
EXTT12=
EXTT13=
EXTT14=
EXTT15=
EXTT16=
EXTT17=
EXTT18=
EXTT19=
EXTT20=
EXTT21=
EXTT22=
EXTT23=
EXTT24=
EXTT25=
PLAYORDER=
